<?xml version="1.0" standalone="no"?>
<!DOCTYPE svg PUBLIC "-//W3C//DTD SVG 20010904//EN"
 "http://www.w3.org/TR/2001/REC-SVG-20010904/DTD/svg10.dtd">
<svg version="1.0" xmlns="http://www.w3.org/2000/svg"
 width="834.000000pt" height="834.000000pt" viewBox="0 0 834.000000 834.000000"
 preserveAspectRatio="xMidYMid meet">

<g transform="translate(0.000000,834.000000) scale(0.100000,-0.100000)"
fill="#000000" stroke="none">
<path d="M0 4170 l0 -4170 4165 0 4165 0 0 4170 0 4170 -4165 0 -4165 0 0
-4170z m7535 900 c-27 -12 -43 -12 -25 0 8 5 22 9 30 9 10 0 8 -3 -5 -9z m308
-1 c20 -5 37 -15 37 -22 0 -20 -73 -87 -96 -87 -21 0 -94 -72 -94 -92 0 -23
-17 -2 -32 39 l-17 46 36 44 c33 40 92 82 118 83 6 0 27 -5 48 -11z m156 -19
c14 0 32 -52 25 -74 -9 -28 -22 -36 -61 -36 -22 0 -36 6 -43 19 -15 30 -12 38
6 13 32 -46 106 -15 89 38 -14 45 -68 46 -95 2 -10 -15 -10 -15 -8 3 4 22 46
47 66 40 8 -3 17 -5 21 -5z m-380 -50 c6 -18 6 -30 0 -30 -5 0 -9 8 -9 18 0
10 -5 23 -12 30 -8 8 -8 12 -1 12 6 0 16 -13 22 -30z m357 22 c5 -4 10 -17 10
-29 0 -17 -3 -20 -14 -11 -10 9 -16 8 -23 -3 -6 -10 -9 -8 -9 12 0 36 13 47
36 31z m-412 -18 c9 -24 2 -26 -12 -4 -7 11 -8 20 -3 20 5 0 12 -7 15 -16z
m-118 -26 c5 -7 3 -8 -6 -3 -10 6 -11 2 -6 -19 4 -18 3 -25 -4 -21 -11 7 -14
38 -3 48 9 9 11 9 19 -5z m34 -48 c5 8 10 10 10 4 0 -16 -10 -23 -26 -17 -8 3
-14 15 -13 27 0 19 1 19 10 -4 8 -20 12 -22 19 -10z m141 11 c5 9 6 -5 3 -36
-8 -60 -14 -71 -14 -24 0 19 -2 43 -4 54 -2 11 -1 14 1 6 4 -12 6 -12 14 0z
m-31 -1 c0 -5 -5 -10 -11 -10 -5 0 -7 5 -4 10 3 6 8 10 11 10 2 0 4 -4 4 -10z
m60 -50 c0 -11 -2 -20 -4 -20 -2 0 -6 9 -9 20 -3 11 -1 20 4 20 5 0 9 -9 9
-20z m-85 -10 c3 -5 1 -10 -4 -10 -6 0 -11 5 -11 10 0 6 2 10 4 10 3 0 8 -4
11 -10z m16 -49 c5 9 8 3 7 -16 0 -17 4 -42 10 -56 9 -23 6 -32 -34 -76 -68
-79 -136 -97 -203 -56 l-23 15 43 44 c41 42 69 56 69 34 0 -33 79 40 101 92 7
17 15 26 17 19 4 -11 6 -11 13 0z m117 -16 c-3 -3 -9 2 -12 12 -6 14 -5 15 5
6 7 -7 10 -15 7 -18z m32 -80 c0 -5 -5 -3 -10 5 -5 8 -10 20 -10 25 0 6 5 3
10 -5 5 -8 10 -19 10 -25z m-560 -21 c42 -25 60 -73 60 -159 l0 -75 65 0 65 0
0 -35 c0 -67 -51 -125 -110 -125 -20 0 -20 -5 -20 -254 0 -289 -2 -281 81
-277 l50 2 -3 -88 -3 -88 -132 1 c-143 1 -165 8 -200 61 -17 25 -18 69 -20
531 -2 277 0 508 3 513 10 16 134 10 164 -7z m650 12 c0 -3 -4 -8 -10 -11 -5
-3 -10 -1 -10 4 0 6 5 11 10 11 6 0 10 -2 10 -4z m-180 -31 c14 -19 14 -19 -2
-6 -10 7 -18 18 -18 24 0 6 1 8 3 6 1 -2 9 -13 17 -24z m66 -32 c-11 -11 -17
4 -9 23 7 18 8 18 11 1 2 -10 1 -21 -2 -24z m94 17 c0 -5 -4 -10 -10 -10 -5 0
-10 5 -10 10 0 6 5 10 10 10 6 0 10 -4 10 -10z m-35 -30 c-3 -5 -12 -10 -18
-10 -7 0 -6 4 3 10 19 12 23 12 15 0z m0 -30 c-3 -5 -12 -10 -18 -10 -7 0 -6
4 3 10 19 12 23 12 15 0z m-6924 -151 c35 -11 71 -27 80 -35 15 -13 21 -12 50
5 76 45 232 63 341 40 118 -26 181 -72 227 -169 l26 -55 3 -327 3 -328 -63 1
c-80 0 -129 17 -145 49 -9 18 -13 94 -13 278 0 282 -5 307 -62 342 -41 25
-126 27 -173 4 -60 -28 -65 -56 -65 -385 l0 -290 -110 2 -110 2 0 288 c0 322
-4 349 -63 384 -39 24 -129 26 -171 5 -16 -8 -37 -31 -47 -50 -17 -32 -19 -62
-19 -332 l0 -298 -111 0 -110 0 3 328 3 327 26 55 c29 60 76 113 123 138 88
45 270 56 377 21z m1434 -13 c79 -36 126 -83 164 -165 59 -130 64 -344 9 -486
-45 -119 -150 -197 -286 -213 -199 -24 -351 42 -420 182 -67 134 -66 401 3
535 44 88 126 152 218 171 23 5 89 8 147 6 90 -2 114 -6 165 -30z m886 -3 c69
-32 97 -61 140 -143 24 -44 24 -50 27 -377 l3 -332 -43 4 c-24 2 -60 4 -81 4
-29 1 -46 9 -68 30 l-29 29 0 262 c0 285 -3 305 -57 345 -21 14 -44 19 -93 19
-50 0 -72 -5 -92 -19 -51 -38 -53 -48 -56 -373 l-3 -303 -110 2 -110 2 3 321
c4 367 7 381 87 467 37 41 60 56 116 75 62 22 84 24 185 21 104 -3 122 -6 181
-34z m850 4 c129 -63 191 -173 205 -363 18 -225 -63 -410 -206 -473 -105 -46
-282 -45 -385 3 -58 26 -118 83 -146 138 -47 91 -67 248 -49 377 17 128 43
187 110 253 81 79 143 99 301 95 101 -3 122 -6 170 -30z m903 -6 c77 -38 128
-92 156 -168 11 -30 20 -58 20 -63 0 -6 -49 -10 -119 -10 l-119 0 -25 33 c-44
59 -144 71 -209 26 -14 -11 -37 -40 -50 -67 -20 -41 -23 -62 -23 -162 0 -100
3 -121 23 -162 56 -113 169 -128 282 -37 39 31 45 33 140 36 117 4 117 4 71
-92 -69 -146 -176 -201 -372 -193 -96 4 -114 8 -174 37 -115 57 -172 153 -195
329 -29 228 44 420 185 487 80 38 119 44 237 41 97 -2 112 -5 172 -35z m868 7
c138 -64 208 -201 208 -410 l0 -68 -280 0 -280 0 0 -22 c0 -47 22 -99 55 -133
63 -63 168 -55 252 18 34 30 38 31 131 31 l97 1 -3 -33 c-6 -78 -79 -169 -170
-214 -59 -29 -77 -33 -169 -36 -87 -4 -115 -1 -173 18 -122 39 -196 122 -231
257 -34 136 -24 316 26 428 62 140 171 197 370 192 94 -3 118 -7 167 -29z
m822 22 c150 -24 249 -121 286 -280 17 -70 17 -238 1 -315 -31 -145 -107 -240
-218 -275 -127 -39 -242 -19 -319 56 l-44 43 0 -184 c0 -101 -4 -195 -10 -209
-13 -36 -45 -49 -132 -53 l-78 -3 0 448 c0 477 3 508 51 605 29 58 65 94 124
125 91 47 215 63 339 42z"/>
<path d="M7950 5010 c0 -5 5 -10 10 -10 6 0 10 5 10 10 0 6 -4 10 -10 10 -5 0
-10 -4 -10 -10z"/>
<path d="M2033 4289 c-44 -13 -90 -73 -104 -134 -17 -78 -7 -231 18 -280 33
-64 56 -79 126 -83 76 -4 115 17 149 80 20 38 23 57 23 168 0 111 -3 130 -23
170 -13 25 -34 52 -46 62 -29 21 -102 30 -143 17z"/>
<path d="M3767 4286 c-49 -18 -64 -31 -90 -80 -30 -56 -32 -246 -4 -319 26
-66 73 -97 149 -97 49 0 62 4 90 29 47 41 70 111 70 218 1 92 -13 160 -39 200
-32 49 -114 72 -176 49z"/>
<path d="M5520 4292 c-35 -19 -72 -74 -84 -124 l-6 -28 160 0 c182 0 180 -2
139 85 -35 75 -133 107 -209 67z"/>
<path d="M6435 4293 c-38 -10 -73 -43 -97 -91 -19 -40 -23 -62 -23 -147 0
-109 13 -159 52 -206 35 -41 74 -59 130 -59 71 0 112 26 148 94 27 53 29 66
29 159 -1 120 -21 178 -77 221 -36 28 -116 42 -162 29z"/>
</g>
</svg>
